<mxfile host="app.diagrams.net" agent="Mozilla/5.0 (Windows NT 10.0; Win64; x64) AppleWebKit/537.36 (KHTML, like Gecko) Chrome/134.0.0.0 Safari/537.36" version="26.2.5" pages="5">
  <diagram name="Diagrama de Caso de Uso" id="9YKrnVWxPq8UeUcq-Yav">
    <mxGraphModel dx="1428" dy="733" grid="0" gridSize="10" guides="1" tooltips="1" connect="1" arrows="1" fold="1" page="1" pageScale="1" pageWidth="827" pageHeight="1169" math="0" shadow="0">
      <root>
        <mxCell id="0" />
        <mxCell id="1" parent="0" />
        <mxCell id="WOwhIQY1Etb2lJACntti-2" value="&lt;font style=&quot;font-size: 25px;&quot;&gt;E-Commerce, Diagrama de Caso de Uso&lt;/font&gt;" style="text;html=1;align=center;verticalAlign=middle;resizable=0;points=[];autosize=1;strokeColor=none;fillColor=none;fontFamily=Times New Roman;" vertex="1" parent="1">
          <mxGeometry x="220" y="40" width="430" height="40" as="geometry" />
        </mxCell>
        <mxCell id="WOwhIQY1Etb2lJACntti-4" value="" style="whiteSpace=wrap;html=1;aspect=fixed;" vertex="1" parent="1">
          <mxGeometry x="110" y="110" width="600" height="600" as="geometry" />
        </mxCell>
        <mxCell id="WOwhIQY1Etb2lJACntti-5" value="Cliente" style="shape=umlActor;verticalLabelPosition=bottom;verticalAlign=top;html=1;outlineConnect=0;" vertex="1" parent="1">
          <mxGeometry x="30" y="340" width="30" height="60" as="geometry" />
        </mxCell>
        <mxCell id="WOwhIQY1Etb2lJACntti-6" value="SISTEMA&lt;div&gt;&lt;br&gt;&lt;/div&gt;" style="shape=umlActor;verticalLabelPosition=bottom;verticalAlign=top;html=1;outlineConnect=0;" vertex="1" parent="1">
          <mxGeometry x="730" y="340" width="30" height="60" as="geometry" />
        </mxCell>
        <mxCell id="WOwhIQY1Etb2lJACntti-7" value="Actualizar_UbicaciÃ³n" style="ellipse;whiteSpace=wrap;html=1;" vertex="1" parent="1">
          <mxGeometry x="165" y="110" width="120" height="80" as="geometry" />
        </mxCell>
        <mxCell id="WOwhIQY1Etb2lJACntti-8" value="Busqueda_Producto" style="ellipse;whiteSpace=wrap;html=1;" vertex="1" parent="1">
          <mxGeometry x="165" y="200" width="120" height="80" as="geometry" />
        </mxCell>
        <mxCell id="WOwhIQY1Etb2lJACntti-9" value="Realizar_Pedido" style="ellipse;whiteSpace=wrap;html=1;" vertex="1" parent="1">
          <mxGeometry x="165" y="290" width="120" height="80" as="geometry" />
        </mxCell>
        <mxCell id="WOwhIQY1Etb2lJACntti-10" value="Realizar Pago" style="ellipse;whiteSpace=wrap;html=1;" vertex="1" parent="1">
          <mxGeometry x="165" y="375" width="120" height="80" as="geometry" />
        </mxCell>
        <mxCell id="WOwhIQY1Etb2lJACntti-11" value="Tarjeta" style="ellipse;whiteSpace=wrap;html=1;" vertex="1" parent="1">
          <mxGeometry x="391" y="276" width="150" height="50" as="geometry" />
        </mxCell>
        <mxCell id="WOwhIQY1Etb2lJACntti-12" value="Efectivo" style="ellipse;whiteSpace=wrap;html=1;" vertex="1" parent="1">
          <mxGeometry x="403" y="400" width="150" height="50" as="geometry" />
        </mxCell>
        <mxCell id="WOwhIQY1Etb2lJACntti-13" value="" style="endArrow=none;dashed=1;html=1;dashPattern=1 3;strokeWidth=2;rounded=0;exitX=0.967;exitY=0.375;exitDx=0;exitDy=0;exitPerimeter=0;entryX=0;entryY=1;entryDx=0;entryDy=0;" edge="1" parent="1" source="WOwhIQY1Etb2lJACntti-10" target="WOwhIQY1Etb2lJACntti-11">
          <mxGeometry width="50" height="50" relative="1" as="geometry">
            <mxPoint x="390" y="300" as="sourcePoint" />
            <mxPoint x="440" y="250" as="targetPoint" />
          </mxGeometry>
        </mxCell>
        <mxCell id="WOwhIQY1Etb2lJACntti-14" value="" style="endArrow=none;dashed=1;html=1;dashPattern=1 3;strokeWidth=2;rounded=0;exitX=0.95;exitY=0.375;exitDx=0;exitDy=0;exitPerimeter=0;entryX=0;entryY=0;entryDx=0;entryDy=0;" edge="1" parent="1" source="WOwhIQY1Etb2lJACntti-10" target="WOwhIQY1Etb2lJACntti-12">
          <mxGeometry width="50" height="50" relative="1" as="geometry">
            <mxPoint x="306" y="390" as="sourcePoint" />
            <mxPoint x="392" y="343" as="targetPoint" />
          </mxGeometry>
        </mxCell>
        <mxCell id="WOwhIQY1Etb2lJACntti-16" value="&lt;b&gt;Validar_&lt;span style=&quot;background-color: transparent; color: light-dark(rgb(0, 0, 0), rgb(255, 255, 255));&quot;&gt;Compra&lt;/span&gt;&lt;/b&gt;" style="ellipse;whiteSpace=wrap;html=1;" vertex="1" parent="1">
          <mxGeometry x="310" y="450" width="170" height="80" as="geometry" />
        </mxCell>
        <mxCell id="WOwhIQY1Etb2lJACntti-19" value="Datos_Compra" style="ellipse;whiteSpace=wrap;html=1;" vertex="1" parent="1">
          <mxGeometry x="310" y="530" width="170" height="80" as="geometry" />
        </mxCell>
        <mxCell id="WOwhIQY1Etb2lJACntti-20" value="Seguimiento_Compra" style="ellipse;whiteSpace=wrap;html=1;" vertex="1" parent="1">
          <mxGeometry x="310" y="610" width="170" height="80" as="geometry" />
        </mxCell>
        <mxCell id="WOwhIQY1Etb2lJACntti-21" value="" style="endArrow=classic;html=1;rounded=0;exitX=0.5;exitY=0.5;exitDx=0;exitDy=0;exitPerimeter=0;entryX=0.033;entryY=0.638;entryDx=0;entryDy=0;entryPerimeter=0;" edge="1" parent="1" source="WOwhIQY1Etb2lJACntti-5" target="WOwhIQY1Etb2lJACntti-7">
          <mxGeometry width="50" height="50" relative="1" as="geometry">
            <mxPoint x="388" y="396" as="sourcePoint" />
            <mxPoint x="438" y="346" as="targetPoint" />
          </mxGeometry>
        </mxCell>
        <mxCell id="WOwhIQY1Etb2lJACntti-22" value="" style="endArrow=classic;html=1;rounded=0;entryX=0;entryY=0.5;entryDx=0;entryDy=0;" edge="1" parent="1" source="WOwhIQY1Etb2lJACntti-5" target="WOwhIQY1Etb2lJACntti-8">
          <mxGeometry width="50" height="50" relative="1" as="geometry">
            <mxPoint x="55" y="380" as="sourcePoint" />
            <mxPoint x="179" y="171" as="targetPoint" />
          </mxGeometry>
        </mxCell>
        <mxCell id="WOwhIQY1Etb2lJACntti-23" value="" style="endArrow=classic;html=1;rounded=0;entryX=0;entryY=0.5;entryDx=0;entryDy=0;" edge="1" parent="1" source="WOwhIQY1Etb2lJACntti-5" target="WOwhIQY1Etb2lJACntti-9">
          <mxGeometry width="50" height="50" relative="1" as="geometry">
            <mxPoint x="70" y="364" as="sourcePoint" />
            <mxPoint x="175" y="250" as="targetPoint" />
          </mxGeometry>
        </mxCell>
        <mxCell id="WOwhIQY1Etb2lJACntti-24" value="" style="endArrow=classic;html=1;rounded=0;entryX=0;entryY=0.5;entryDx=0;entryDy=0;" edge="1" parent="1" source="WOwhIQY1Etb2lJACntti-5" target="WOwhIQY1Etb2lJACntti-10">
          <mxGeometry width="50" height="50" relative="1" as="geometry">
            <mxPoint x="70" y="375" as="sourcePoint" />
            <mxPoint x="175" y="340" as="targetPoint" />
          </mxGeometry>
        </mxCell>
        <mxCell id="WOwhIQY1Etb2lJACntti-25" value="" style="endArrow=classic;html=1;rounded=0;entryX=0.041;entryY=0.625;entryDx=0;entryDy=0;exitX=0.5;exitY=0.5;exitDx=0;exitDy=0;exitPerimeter=0;entryPerimeter=0;" edge="1" parent="1" source="WOwhIQY1Etb2lJACntti-5" target="WOwhIQY1Etb2lJACntti-19">
          <mxGeometry width="50" height="50" relative="1" as="geometry">
            <mxPoint x="80" y="385" as="sourcePoint" />
            <mxPoint x="185" y="350" as="targetPoint" />
          </mxGeometry>
        </mxCell>
        <mxCell id="WOwhIQY1Etb2lJACntti-26" value="" style="endArrow=classic;html=1;rounded=0;entryX=0.029;entryY=0.588;entryDx=0;entryDy=0;exitX=0.5;exitY=0.5;exitDx=0;exitDy=0;exitPerimeter=0;entryPerimeter=0;" edge="1" parent="1" source="WOwhIQY1Etb2lJACntti-5" target="WOwhIQY1Etb2lJACntti-20">
          <mxGeometry width="50" height="50" relative="1" as="geometry">
            <mxPoint x="38" y="408" as="sourcePoint" />
            <mxPoint x="310" y="618" as="targetPoint" />
          </mxGeometry>
        </mxCell>
        <mxCell id="WOwhIQY1Etb2lJACntti-27" value="" style="endArrow=none;dashed=1;html=1;dashPattern=1 3;strokeWidth=2;rounded=0;exitX=0.933;exitY=0.675;exitDx=0;exitDy=0;exitPerimeter=0;" edge="1" parent="1" source="WOwhIQY1Etb2lJACntti-7" target="WOwhIQY1Etb2lJACntti-28">
          <mxGeometry width="50" height="50" relative="1" as="geometry">
            <mxPoint x="291" y="415" as="sourcePoint" />
            <mxPoint x="392" y="343" as="targetPoint" />
          </mxGeometry>
        </mxCell>
        <mxCell id="WOwhIQY1Etb2lJACntti-28" value="Registro" style="ellipse;whiteSpace=wrap;html=1;" vertex="1" parent="1">
          <mxGeometry x="406" y="120" width="120" height="80" as="geometry" />
        </mxCell>
        <mxCell id="WOwhIQY1Etb2lJACntti-29" value="&amp;lt;&amp;lt;Include&amp;gt;&amp;gt;" style="text;html=1;align=center;verticalAlign=middle;whiteSpace=wrap;rounded=0;" vertex="1" parent="1">
          <mxGeometry x="316" y="129" width="60" height="30" as="geometry" />
        </mxCell>
        <mxCell id="WOwhIQY1Etb2lJACntti-30" value="&amp;lt;&amp;lt;Extend&amp;gt;&amp;gt;" style="text;html=1;align=center;verticalAlign=middle;whiteSpace=wrap;rounded=0;" vertex="1" parent="1">
          <mxGeometry x="312" y="321" width="60" height="30" as="geometry" />
        </mxCell>
        <mxCell id="WOwhIQY1Etb2lJACntti-31" value="&amp;lt;&amp;lt;Extend&amp;gt;&amp;gt;" style="text;html=1;align=center;verticalAlign=middle;whiteSpace=wrap;rounded=0;" vertex="1" parent="1">
          <mxGeometry x="316" y="404" width="60" height="30" as="geometry" />
        </mxCell>
        <mxCell id="WOwhIQY1Etb2lJACntti-32" value="" style="endArrow=classic;html=1;rounded=0;entryX=0.908;entryY=0.775;entryDx=0;entryDy=0;entryPerimeter=0;" edge="1" parent="1" source="WOwhIQY1Etb2lJACntti-6" target="WOwhIQY1Etb2lJACntti-7">
          <mxGeometry width="50" height="50" relative="1" as="geometry">
            <mxPoint x="55" y="380" as="sourcePoint" />
            <mxPoint x="179" y="171" as="targetPoint" />
          </mxGeometry>
        </mxCell>
        <mxCell id="WOwhIQY1Etb2lJACntti-33" value="" style="endArrow=classic;html=1;rounded=0;entryX=0.976;entryY=0.6;entryDx=0;entryDy=0;entryPerimeter=0;" edge="1" parent="1" source="WOwhIQY1Etb2lJACntti-6" target="WOwhIQY1Etb2lJACntti-16">
          <mxGeometry width="50" height="50" relative="1" as="geometry">
            <mxPoint x="740" y="374" as="sourcePoint" />
            <mxPoint x="284" y="182" as="targetPoint" />
          </mxGeometry>
        </mxCell>
        <mxCell id="WOwhIQY1Etb2lJACntti-34" value="" style="endArrow=classic;html=1;rounded=0;entryX=1;entryY=0.5;entryDx=0;entryDy=0;" edge="1" parent="1" source="WOwhIQY1Etb2lJACntti-6" target="WOwhIQY1Etb2lJACntti-19">
          <mxGeometry width="50" height="50" relative="1" as="geometry">
            <mxPoint x="740" y="387" as="sourcePoint" />
            <mxPoint x="486" y="508" as="targetPoint" />
          </mxGeometry>
        </mxCell>
        <mxCell id="WOwhIQY1Etb2lJACntti-36" value="ReseÃ±a" style="ellipse;whiteSpace=wrap;html=1;" vertex="1" parent="1">
          <mxGeometry x="122" y="630" width="170" height="80" as="geometry" />
        </mxCell>
        <mxCell id="WOwhIQY1Etb2lJACntti-37" value="" style="endArrow=classic;html=1;rounded=0;" edge="1" parent="1" source="WOwhIQY1Etb2lJACntti-5" target="WOwhIQY1Etb2lJACntti-36">
          <mxGeometry width="50" height="50" relative="1" as="geometry">
            <mxPoint x="55" y="380" as="sourcePoint" />
            <mxPoint x="325" y="667" as="targetPoint" />
          </mxGeometry>
        </mxCell>
      </root>
    </mxGraphModel>
  </diagram>
  <diagram id="GOL2bKC9U7C8dM4_XHSu" name="Diagrama de Secuencia">
    <mxGraphModel dx="1428" dy="733" grid="0" gridSize="10" guides="1" tooltips="1" connect="1" arrows="1" fold="1" page="1" pageScale="1" pageWidth="827" pageHeight="1169" math="0" shadow="0">
      <root>
        <mxCell id="0" />
        <mxCell id="1" parent="0" />
        <mxCell id="D-plsg7UHbEB52UtSqdu-1" value="&lt;font style=&quot;font-size: 25px;&quot;&gt;E-Commerce, Diagrama de Secuencia&lt;/font&gt;&lt;div&gt;&lt;font style=&quot;font-size: 25px;&quot;&gt;&lt;br&gt;&lt;/font&gt;&lt;/div&gt;" style="text;html=1;align=center;verticalAlign=middle;resizable=0;points=[];autosize=1;strokeColor=none;fillColor=none;fontFamily=Times New Roman;" parent="1" vertex="1">
          <mxGeometry x="235" y="24" width="400" height="72" as="geometry" />
        </mxCell>
        <mxCell id="uNo2tos7rm5FIzmG3yII-33" value="&lt;font style=&quot;vertical-align: inherit;&quot;&gt;&lt;font style=&quot;vertical-align: inherit;&quot;&gt;&lt;font style=&quot;vertical-align: inherit;&quot;&gt;&lt;font style=&quot;vertical-align: inherit;&quot;&gt;Interfaz&lt;/font&gt;&lt;/font&gt;&lt;/font&gt;&lt;/font&gt;" style="rounded=1;whiteSpace=wrap;html=1;" parent="1" vertex="1">
          <mxGeometry x="118" y="102" width="120" height="60" as="geometry" />
        </mxCell>
        <mxCell id="uNo2tos7rm5FIzmG3yII-34" value="&lt;font style=&quot;vertical-align: inherit;&quot;&gt;&lt;font style=&quot;vertical-align: inherit;&quot;&gt;CatÃ¡logo&lt;/font&gt;&lt;/font&gt;" style="rounded=1;whiteSpace=wrap;html=1;" parent="1" vertex="1">
          <mxGeometry x="268" y="104" width="120" height="60" as="geometry" />
        </mxCell>
        <mxCell id="uNo2tos7rm5FIzmG3yII-35" value="&lt;font style=&quot;vertical-align: inherit;&quot;&gt;&lt;font style=&quot;vertical-align: inherit;&quot;&gt;Carrito&lt;/font&gt;&lt;/font&gt;" style="rounded=1;whiteSpace=wrap;html=1;" parent="1" vertex="1">
          <mxGeometry x="418" y="104" width="120" height="60" as="geometry" />
        </mxCell>
        <mxCell id="uNo2tos7rm5FIzmG3yII-36" value="&lt;font style=&quot;vertical-align: inherit;&quot;&gt;&lt;font style=&quot;vertical-align: inherit;&quot;&gt;Base de datos&lt;/font&gt;&lt;/font&gt;" style="rounded=1;whiteSpace=wrap;html=1;" parent="1" vertex="1">
          <mxGeometry x="635" y="102" width="120" height="60" as="geometry" />
        </mxCell>
        <mxCell id="uNo2tos7rm5FIzmG3yII-37" value="" style="endArrow=none;dashed=1;html=1;rounded=0;entryX=0.5;entryY=1;entryDx=0;entryDy=0;" parent="1" edge="1">
          <mxGeometry width="50" height="50" relative="1" as="geometry">
            <mxPoint x="177.5" y="224" as="sourcePoint" />
            <mxPoint x="177.5" y="164" as="targetPoint" />
            <Array as="points">
              <mxPoint x="177.5" y="214" />
            </Array>
          </mxGeometry>
        </mxCell>
        <mxCell id="uNo2tos7rm5FIzmG3yII-38" value="" style="endArrow=none;dashed=1;html=1;rounded=0;entryX=0.5;entryY=1;entryDx=0;entryDy=0;exitX=0.5;exitY=0;exitDx=0;exitDy=0;" parent="1" source="uNo2tos7rm5FIzmG3yII-44" edge="1">
          <mxGeometry width="50" height="50" relative="1" as="geometry">
            <mxPoint x="327.5" y="224" as="sourcePoint" />
            <mxPoint x="327.5" y="164" as="targetPoint" />
            <Array as="points">
              <mxPoint x="327.5" y="194" />
            </Array>
          </mxGeometry>
        </mxCell>
        <mxCell id="uNo2tos7rm5FIzmG3yII-39" value="" style="endArrow=none;dashed=1;html=1;rounded=0;" parent="1" source="QoKg7n3v38N7Jek8IemS-7" target="uNo2tos7rm5FIzmG3yII-35" edge="1">
          <mxGeometry width="50" height="50" relative="1" as="geometry">
            <mxPoint x="478" y="742" as="sourcePoint" />
            <mxPoint x="477.5" y="174" as="targetPoint" />
          </mxGeometry>
        </mxCell>
        <mxCell id="uNo2tos7rm5FIzmG3yII-40" value="" style="endArrow=none;dashed=1;html=1;rounded=0;entryX=0.5;entryY=1;entryDx=0;entryDy=0;" parent="1" edge="1">
          <mxGeometry width="50" height="50" relative="1" as="geometry">
            <mxPoint x="698" y="254" as="sourcePoint" />
            <mxPoint x="697.5" y="194" as="targetPoint" />
          </mxGeometry>
        </mxCell>
        <mxCell id="uNo2tos7rm5FIzmG3yII-41" value="" style="rounded=0;whiteSpace=wrap;html=1;" parent="1" vertex="1">
          <mxGeometry x="168" y="224" width="20" height="210" as="geometry" />
        </mxCell>
        <mxCell id="uNo2tos7rm5FIzmG3yII-42" value="" style="endArrow=classic;html=1;rounded=0;exitX=1;exitY=0;exitDx=0;exitDy=0;" parent="1" source="uNo2tos7rm5FIzmG3yII-41" edge="1">
          <mxGeometry width="50" height="50" relative="1" as="geometry">
            <mxPoint x="188" y="224" as="sourcePoint" />
            <mxPoint x="318" y="224" as="targetPoint" />
          </mxGeometry>
        </mxCell>
        <mxCell id="uNo2tos7rm5FIzmG3yII-43" value="&lt;font style=&quot;vertical-align: inherit;&quot;&gt;&lt;font style=&quot;vertical-align: inherit;&quot;&gt;2. Buscamos Producto&lt;/font&gt;&lt;/font&gt;" style="text;html=1;align=center;verticalAlign=middle;resizable=0;points=[];autosize=1;strokeColor=none;fillColor=none;" parent="1" vertex="1">
          <mxGeometry x="179" y="196" width="139" height="26" as="geometry" />
        </mxCell>
        <mxCell id="uNo2tos7rm5FIzmG3yII-44" value="" style="rounded=0;whiteSpace=wrap;html=1;" parent="1" vertex="1">
          <mxGeometry x="318" y="234" width="20" height="440" as="geometry" />
        </mxCell>
        <mxCell id="uNo2tos7rm5FIzmG3yII-45" value="" style="endArrow=classic;html=1;rounded=0;exitX=1;exitY=0;exitDx=0;exitDy=0;entryX=0;entryY=0;entryDx=0;entryDy=0;" parent="1" source="uNo2tos7rm5FIzmG3yII-44" target="uNo2tos7rm5FIzmG3yII-47" edge="1">
          <mxGeometry width="50" height="50" relative="1" as="geometry">
            <mxPoint x="358" y="244" as="sourcePoint" />
            <mxPoint x="458" y="234" as="targetPoint" />
          </mxGeometry>
        </mxCell>
        <mxCell id="uNo2tos7rm5FIzmG3yII-46" value="&lt;font style=&quot;vertical-align: inherit;&quot;&gt;&lt;font style=&quot;vertical-align: inherit;&quot;&gt;3.Seleccionamos producto&lt;/font&gt;&lt;/font&gt;" style="text;html=1;align=center;verticalAlign=middle;resizable=0;points=[];autosize=1;strokeColor=none;fillColor=none;" parent="1" vertex="1">
          <mxGeometry x="323" y="205" width="159" height="26" as="geometry" />
        </mxCell>
        <mxCell id="uNo2tos7rm5FIzmG3yII-47" value="" style="rounded=0;whiteSpace=wrap;html=1;" parent="1" vertex="1">
          <mxGeometry x="468" y="233" width="20" height="47" as="geometry" />
        </mxCell>
        <mxCell id="uNo2tos7rm5FIzmG3yII-48" value="" style="endArrow=classic;html=1;rounded=0;exitX=1;exitY=1;exitDx=0;exitDy=0;entryX=1;entryY=0.647;entryDx=0;entryDy=0;entryPerimeter=0;" parent="1" source="uNo2tos7rm5FIzmG3yII-47" target="QoKg7n3v38N7Jek8IemS-7" edge="1">
          <mxGeometry width="50" height="50" relative="1" as="geometry">
            <mxPoint x="488" y="244" as="sourcePoint" />
            <mxPoint x="553" y="347" as="targetPoint" />
            <Array as="points">
              <mxPoint x="550" y="280" />
              <mxPoint x="550" y="342" />
            </Array>
          </mxGeometry>
        </mxCell>
        <mxCell id="uNo2tos7rm5FIzmG3yII-49" value="&lt;font style=&quot;vertical-align: inherit;&quot;&gt;&lt;font style=&quot;vertical-align: inherit;&quot;&gt;4.Agregamos al carrito&lt;/font&gt;&lt;/font&gt;" style="text;html=1;align=center;verticalAlign=middle;resizable=0;points=[];autosize=1;strokeColor=none;fillColor=none;" parent="1" vertex="1">
          <mxGeometry x="549" y="298" width="139" height="26" as="geometry" />
        </mxCell>
        <mxCell id="uNo2tos7rm5FIzmG3yII-50" value="" style="rounded=0;whiteSpace=wrap;html=1;" parent="1" vertex="1">
          <mxGeometry x="688" y="252" width="20" height="532" as="geometry" />
        </mxCell>
        <mxCell id="uNo2tos7rm5FIzmG3yII-51" value="" style="endArrow=none;dashed=1;html=1;rounded=0;entryX=0.5;entryY=1;entryDx=0;entryDy=0;" parent="1" edge="1">
          <mxGeometry width="50" height="50" relative="1" as="geometry">
            <mxPoint x="177.5" y="494" as="sourcePoint" />
            <mxPoint x="177.5" y="434" as="targetPoint" />
            <Array as="points">
              <mxPoint x="177.5" y="484" />
            </Array>
          </mxGeometry>
        </mxCell>
        <mxCell id="uNo2tos7rm5FIzmG3yII-52" value="" style="rounded=0;whiteSpace=wrap;html=1;" parent="1" vertex="1">
          <mxGeometry x="168" y="464" width="20" height="320" as="geometry" />
        </mxCell>
        <mxCell id="uNo2tos7rm5FIzmG3yII-53" value="" style="endArrow=classic;html=1;rounded=0;exitX=1;exitY=0;exitDx=0;exitDy=0;entryX=0.5;entryY=1;entryDx=0;entryDy=0;" parent="1" target="uNo2tos7rm5FIzmG3yII-44" edge="1">
          <mxGeometry width="50" height="50" relative="1" as="geometry">
            <mxPoint x="178" y="673" as="sourcePoint" />
            <mxPoint x="308" y="673" as="targetPoint" />
          </mxGeometry>
        </mxCell>
        <mxCell id="uNo2tos7rm5FIzmG3yII-54" value="" style="endArrow=classic;html=1;rounded=0;exitX=1;exitY=0;exitDx=0;exitDy=0;" parent="1" edge="1">
          <mxGeometry width="50" height="50" relative="1" as="geometry">
            <mxPoint x="328" y="674" as="sourcePoint" />
            <mxPoint x="412" y="674" as="targetPoint" />
            <Array as="points" />
          </mxGeometry>
        </mxCell>
        <mxCell id="uNo2tos7rm5FIzmG3yII-55" value="" style="endArrow=classic;html=1;rounded=0;exitX=1;exitY=0;exitDx=0;exitDy=0;entryX=0;entryY=0.788;entryDx=0;entryDy=0;entryPerimeter=0;" parent="1" target="uNo2tos7rm5FIzmG3yII-50" edge="1">
          <mxGeometry width="50" height="50" relative="1" as="geometry">
            <mxPoint x="468" y="673" as="sourcePoint" />
            <mxPoint x="598" y="673" as="targetPoint" />
          </mxGeometry>
        </mxCell>
        <mxCell id="uNo2tos7rm5FIzmG3yII-56" value="" style="endArrow=classic;html=1;rounded=0;exitX=0.15;exitY=0.432;exitDx=0;exitDy=0;exitPerimeter=0;entryX=0.85;entryY=0.557;entryDx=0;entryDy=0;entryPerimeter=0;dashed=1;dashPattern=12 12;" parent="1" source="uNo2tos7rm5FIzmG3yII-50" target="uNo2tos7rm5FIzmG3yII-44" edge="1">
          <mxGeometry width="50" height="50" relative="1" as="geometry">
            <mxPoint x="528" y="484" as="sourcePoint" />
            <mxPoint x="658" y="484" as="targetPoint" />
          </mxGeometry>
        </mxCell>
        <mxCell id="uNo2tos7rm5FIzmG3yII-57" value="" style="endArrow=classic;html=1;rounded=0;exitX=0.05;exitY=0.527;exitDx=0;exitDy=0;exitPerimeter=0;entryX=0.85;entryY=0.557;entryDx=0;entryDy=0;entryPerimeter=0;dashed=1;dashPattern=12 12;" parent="1" source="uNo2tos7rm5FIzmG3yII-44" edge="1">
          <mxGeometry width="50" height="50" relative="1" as="geometry">
            <mxPoint x="534" y="467" as="sourcePoint" />
            <mxPoint x="178" y="464" as="targetPoint" />
          </mxGeometry>
        </mxCell>
        <mxCell id="uNo2tos7rm5FIzmG3yII-58" value="&lt;font style=&quot;vertical-align: inherit;&quot;&gt;&lt;font style=&quot;vertical-align: inherit;&quot;&gt;Realizar OperaciÃ³n&lt;/font&gt;&lt;/font&gt;" style="text;html=1;align=center;verticalAlign=middle;resizable=0;points=[];autosize=1;strokeColor=none;fillColor=none;" parent="1" vertex="1">
          <mxGeometry x="183" y="434" width="130" height="30" as="geometry" />
        </mxCell>
        <mxCell id="uNo2tos7rm5FIzmG3yII-59" value="&lt;font style=&quot;vertical-align: inherit;&quot;&gt;&lt;font style=&quot;vertical-align: inherit;&quot;&gt;Datos Validados&lt;/font&gt;&lt;/font&gt;" style="text;html=1;align=center;verticalAlign=middle;resizable=0;points=[];autosize=1;strokeColor=none;fillColor=none;" parent="1" vertex="1">
          <mxGeometry x="358" y="454" width="110" height="30" as="geometry" />
        </mxCell>
        <mxCell id="uNo2tos7rm5FIzmG3yII-60" value="&lt;font style=&quot;vertical-align: inherit;&quot;&gt;&lt;font style=&quot;vertical-align: inherit;&quot;&gt;4 Seleccionar OperaciÃ³n&lt;/font&gt;&lt;/font&gt;" style="text;html=1;align=center;verticalAlign=middle;resizable=0;points=[];autosize=1;strokeColor=none;fillColor=none;" parent="1" vertex="1">
          <mxGeometry x="178" y="644" width="150" height="30" as="geometry" />
        </mxCell>
        <mxCell id="uNo2tos7rm5FIzmG3yII-61" value="&lt;font style=&quot;vertical-align: inherit;&quot;&gt;&lt;font style=&quot;vertical-align: inherit;&quot;&gt;5 Depositar Dinero&lt;/font&gt;&lt;/font&gt;" style="text;html=1;align=center;verticalAlign=middle;resizable=0;points=[];autosize=1;strokeColor=none;fillColor=none;" parent="1" vertex="1">
          <mxGeometry x="338" y="599" width="120" height="30" as="geometry" />
        </mxCell>
        <mxCell id="uNo2tos7rm5FIzmG3yII-62" value="&lt;font style=&quot;vertical-align: inherit;&quot;&gt;&lt;font style=&quot;vertical-align: inherit;&quot;&gt;6 Actualizar cuenta&lt;/font&gt;&lt;/font&gt;" style="text;html=1;align=center;verticalAlign=middle;resizable=0;points=[];autosize=1;strokeColor=none;fillColor=none;" parent="1" vertex="1">
          <mxGeometry x="523" y="639" width="120" height="30" as="geometry" />
        </mxCell>
        <mxCell id="uNo2tos7rm5FIzmG3yII-63" value="" style="endArrow=classic;html=1;rounded=0;exitX=0.15;exitY=0.432;exitDx=0;exitDy=0;exitPerimeter=0;entryX=1;entryY=1;entryDx=0;entryDy=0;dashed=1;dashPattern=12 12;" parent="1" target="uNo2tos7rm5FIzmG3yII-52" edge="1">
          <mxGeometry width="50" height="50" relative="1" as="geometry">
            <mxPoint x="694" y="784" as="sourcePoint" />
            <mxPoint x="338" y="781" as="targetPoint" />
          </mxGeometry>
        </mxCell>
        <mxCell id="uNo2tos7rm5FIzmG3yII-64" value="&lt;font style=&quot;vertical-align: inherit;&quot;&gt;&lt;font style=&quot;vertical-align: inherit;&quot;&gt;TransacciÃ³n Completada&lt;/font&gt;&lt;/font&gt;" style="text;html=1;align=center;verticalAlign=middle;resizable=0;points=[];autosize=1;strokeColor=none;fillColor=none;" parent="1" vertex="1">
          <mxGeometry x="323" y="754" width="160" height="30" as="geometry" />
        </mxCell>
        <mxCell id="QoKg7n3v38N7Jek8IemS-1" value="Cliente" style="shape=umlActor;verticalLabelPosition=bottom;verticalAlign=top;html=1;outlineConnect=0;" parent="1" vertex="1">
          <mxGeometry x="30" y="113" width="30" height="60" as="geometry" />
        </mxCell>
        <mxCell id="QoKg7n3v38N7Jek8IemS-3" value="" style="edgeStyle=orthogonalEdgeStyle;rounded=0;orthogonalLoop=1;jettySize=auto;html=1;" parent="1" source="QoKg7n3v38N7Jek8IemS-2" target="QoKg7n3v38N7Jek8IemS-1" edge="1">
          <mxGeometry relative="1" as="geometry" />
        </mxCell>
        <mxCell id="QoKg7n3v38N7Jek8IemS-2" value="" style="rounded=0;whiteSpace=wrap;html=1;" parent="1" vertex="1">
          <mxGeometry x="35" y="217" width="20" height="210" as="geometry" />
        </mxCell>
        <mxCell id="QoKg7n3v38N7Jek8IemS-4" value="" style="endArrow=classic;html=1;rounded=0;exitX=1;exitY=0;exitDx=0;exitDy=0;entryX=-0.02;entryY=0.867;entryDx=0;entryDy=0;entryPerimeter=0;" parent="1" source="QoKg7n3v38N7Jek8IemS-2" target="uNo2tos7rm5FIzmG3yII-43" edge="1">
          <mxGeometry width="50" height="50" relative="1" as="geometry">
            <mxPoint x="498" y="252" as="sourcePoint" />
            <mxPoint x="698" y="254" as="targetPoint" />
          </mxGeometry>
        </mxCell>
        <mxCell id="QoKg7n3v38N7Jek8IemS-5" value="&lt;font style=&quot;vertical-align: inherit;&quot;&gt;&lt;font style=&quot;vertical-align: inherit;&quot;&gt;Actualiza ubicaciÃ³n&lt;/font&gt;&lt;/font&gt;" style="text;html=1;align=center;verticalAlign=middle;resizable=0;points=[];autosize=1;strokeColor=none;fillColor=none;" parent="1" vertex="1">
          <mxGeometry x="49" y="189" width="121" height="26" as="geometry" />
        </mxCell>
        <mxCell id="QoKg7n3v38N7Jek8IemS-6" value="&lt;font style=&quot;vertical-align: inherit;&quot;&gt;&lt;font style=&quot;vertical-align: inherit; font-size: 10px;&quot;&gt;1. Abrir Interfaz&lt;/font&gt;&lt;/font&gt;" style="text;html=1;align=center;verticalAlign=middle;resizable=0;points=[];autosize=1;strokeColor=none;fillColor=none;" parent="1" vertex="1">
          <mxGeometry x="69" y="168" width="86" height="26" as="geometry" />
        </mxCell>
        <mxCell id="zKlmbGHcwTh0YLtHwTqi-1" value="" style="endArrow=none;dashed=1;html=1;rounded=0;" parent="1" target="QoKg7n3v38N7Jek8IemS-7" edge="1">
          <mxGeometry width="50" height="50" relative="1" as="geometry">
            <mxPoint x="478" y="742" as="sourcePoint" />
            <mxPoint x="478" y="164" as="targetPoint" />
          </mxGeometry>
        </mxCell>
        <mxCell id="QoKg7n3v38N7Jek8IemS-7" value="" style="rounded=0;whiteSpace=wrap;html=1;" parent="1" vertex="1">
          <mxGeometry x="466" y="298" width="20" height="68" as="geometry" />
        </mxCell>
        <mxCell id="zKlmbGHcwTh0YLtHwTqi-3" value="" style="endArrow=classic;html=1;rounded=0;exitX=-0.2;exitY=0.603;exitDx=0;exitDy=0;exitPerimeter=0;dashed=1;dashPattern=12 12;entryX=0.8;entryY=0.567;entryDx=0;entryDy=0;entryPerimeter=0;" parent="1" source="QoKg7n3v38N7Jek8IemS-7" target="QoKg7n3v38N7Jek8IemS-2" edge="1">
          <mxGeometry width="50" height="50" relative="1" as="geometry">
            <mxPoint x="701" y="492" as="sourcePoint" />
            <mxPoint x="345" y="489" as="targetPoint" />
          </mxGeometry>
        </mxCell>
      </root>
    </mxGraphModel>
  </diagram>
  <diagram id="u85Rz7WTaVoAcbshfo36" name="Diagrama de ColaboraciÃ²n">
    <mxGraphModel dx="1428" dy="733" grid="0" gridSize="10" guides="1" tooltips="1" connect="1" arrows="1" fold="1" page="1" pageScale="1" pageWidth="827" pageHeight="1169" math="0" shadow="0">
      <root>
        <mxCell id="0" />
        <mxCell id="1" parent="0" />
        <mxCell id="9FdqawGJA9SgIzqtG-MX-1" value="&lt;font style=&quot;font-size: 25px;&quot;&gt;E-Commerce, Diagrama de ColaboraciÃ²n&lt;/font&gt;" style="text;html=1;align=center;verticalAlign=middle;resizable=0;points=[];autosize=1;strokeColor=none;fillColor=none;fontFamily=Times New Roman;" vertex="1" parent="1">
          <mxGeometry x="198" y="39" width="433" height="42" as="geometry" />
        </mxCell>
      </root>
    </mxGraphModel>
  </diagram>
  <diagram id="o9pvs2vc-FdjCYAbQzaQ" name="Mapa de NavegaciÃ²n_Cajero AutomÃ tico">
    <mxGraphModel dx="1428" dy="733" grid="1" gridSize="10" guides="1" tooltips="1" connect="1" arrows="1" fold="1" page="1" pageScale="1" pageWidth="827" pageHeight="1169" math="0" shadow="0">
      <root>
        <mxCell id="0" />
        <mxCell id="1" parent="0" />
        <mxCell id="lQjBTznXiysh7f5Y05I4-1" value="Inicio de sesiÃ²n&lt;div&gt;&lt;br&gt;&lt;/div&gt;" style="rounded=1;whiteSpace=wrap;html=1;" vertex="1" parent="1">
          <mxGeometry x="330" y="100" width="120" height="60" as="geometry" />
        </mxCell>
        <mxCell id="94wCXRL_7_7KG6kf2Dvk-1" value="&lt;font style=&quot;font-size: 25px;&quot;&gt;E-Commerce, Mapa de NavegaciÃ²n&lt;/font&gt;&lt;div&gt;&lt;font style=&quot;font-size: 25px;&quot;&gt;&lt;br&gt;&lt;/font&gt;&lt;/div&gt;" style="text;html=1;align=center;verticalAlign=middle;resizable=0;points=[];autosize=1;strokeColor=none;fillColor=none;fontFamily=Times New Roman;" vertex="1" parent="1">
          <mxGeometry x="224" y="25" width="380" height="70" as="geometry" />
        </mxCell>
        <mxCell id="94wCXRL_7_7KG6kf2Dvk-2" value="&lt;div&gt;MenÃ¹ de Opciones&lt;/div&gt;" style="rounded=1;whiteSpace=wrap;html=1;" vertex="1" parent="1">
          <mxGeometry x="330" y="240" width="120" height="60" as="geometry" />
        </mxCell>
        <mxCell id="94wCXRL_7_7KG6kf2Dvk-3" value="&lt;div&gt;Consulta de Saldo&lt;/div&gt;" style="rounded=1;whiteSpace=wrap;html=1;" vertex="1" parent="1">
          <mxGeometry x="40" y="400" width="120" height="60" as="geometry" />
        </mxCell>
        <mxCell id="94wCXRL_7_7KG6kf2Dvk-4" value="&lt;div&gt;Retiro sin tarjeta&lt;/div&gt;" style="rounded=1;whiteSpace=wrap;html=1;" vertex="1" parent="1">
          <mxGeometry x="210" y="400" width="120" height="60" as="geometry" />
        </mxCell>
        <mxCell id="94wCXRL_7_7KG6kf2Dvk-5" value="&lt;div&gt;Transferencia&lt;/div&gt;" style="rounded=1;whiteSpace=wrap;html=1;" vertex="1" parent="1">
          <mxGeometry x="450" y="400" width="120" height="60" as="geometry" />
        </mxCell>
        <mxCell id="94wCXRL_7_7KG6kf2Dvk-6" value="&lt;div&gt;Pago de Servicios&lt;/div&gt;" style="rounded=1;whiteSpace=wrap;html=1;" vertex="1" parent="1">
          <mxGeometry x="630" y="400" width="120" height="60" as="geometry" />
        </mxCell>
        <mxCell id="94wCXRL_7_7KG6kf2Dvk-7" value="" style="shape=flexArrow;endArrow=classic;html=1;rounded=0;" edge="1" parent="1">
          <mxGeometry width="50" height="50" relative="1" as="geometry">
            <mxPoint x="389.5" y="160" as="sourcePoint" />
            <mxPoint x="389.5" y="240" as="targetPoint" />
            <Array as="points">
              <mxPoint x="389.5" y="210" />
            </Array>
          </mxGeometry>
        </mxCell>
        <mxCell id="94wCXRL_7_7KG6kf2Dvk-8" value="" style="rounded=0;whiteSpace=wrap;html=1;" vertex="1" parent="1">
          <mxGeometry x="60" y="330" width="680" height="20" as="geometry" />
        </mxCell>
        <mxCell id="94wCXRL_7_7KG6kf2Dvk-9" value="" style="shape=flexArrow;endArrow=classic;html=1;rounded=0;" edge="1" parent="1">
          <mxGeometry width="50" height="50" relative="1" as="geometry">
            <mxPoint x="60" y="350" as="sourcePoint" />
            <mxPoint x="60" y="400" as="targetPoint" />
            <Array as="points">
              <mxPoint x="60" y="400" />
            </Array>
          </mxGeometry>
        </mxCell>
        <mxCell id="94wCXRL_7_7KG6kf2Dvk-10" value="" style="shape=flexArrow;endArrow=classic;html=1;rounded=0;" edge="1" parent="1">
          <mxGeometry width="50" height="50" relative="1" as="geometry">
            <mxPoint x="269.5" y="350" as="sourcePoint" />
            <mxPoint x="269.5" y="400" as="targetPoint" />
            <Array as="points">
              <mxPoint x="269.5" y="400" />
            </Array>
          </mxGeometry>
        </mxCell>
        <mxCell id="94wCXRL_7_7KG6kf2Dvk-11" value="" style="shape=flexArrow;endArrow=classic;html=1;rounded=0;" edge="1" parent="1">
          <mxGeometry width="50" height="50" relative="1" as="geometry">
            <mxPoint x="509.5" y="350" as="sourcePoint" />
            <mxPoint x="509.5" y="400" as="targetPoint" />
            <Array as="points">
              <mxPoint x="509.5" y="400" />
            </Array>
          </mxGeometry>
        </mxCell>
        <mxCell id="94wCXRL_7_7KG6kf2Dvk-12" value="" style="shape=flexArrow;endArrow=classic;html=1;rounded=0;" edge="1" parent="1">
          <mxGeometry width="50" height="50" relative="1" as="geometry">
            <mxPoint x="740" y="350" as="sourcePoint" />
            <mxPoint x="740" y="400" as="targetPoint" />
            <Array as="points">
              <mxPoint x="740" y="400" />
            </Array>
          </mxGeometry>
        </mxCell>
        <mxCell id="U9Kk1MmL3YLU4MKY3mJT-3" value="" style="shape=flexArrow;endArrow=classic;html=1;rounded=0;" edge="1" parent="1">
          <mxGeometry width="50" height="50" relative="1" as="geometry">
            <mxPoint x="389.5" y="300" as="sourcePoint" />
            <mxPoint x="390" y="330" as="targetPoint" />
            <Array as="points">
              <mxPoint x="389.5" y="330" />
            </Array>
          </mxGeometry>
        </mxCell>
        <mxCell id="U9Kk1MmL3YLU4MKY3mJT-4" value="&lt;div&gt;Elige el monto y concepto&lt;/div&gt;" style="rounded=1;whiteSpace=wrap;html=1;" vertex="1" parent="1">
          <mxGeometry x="210" y="490" width="120" height="60" as="geometry" />
        </mxCell>
        <mxCell id="U9Kk1MmL3YLU4MKY3mJT-5" value="&lt;div&gt;Genera cÃ²digo&lt;/div&gt;" style="rounded=1;whiteSpace=wrap;html=1;" vertex="1" parent="1">
          <mxGeometry x="210" y="584.5" width="120" height="60" as="geometry" />
        </mxCell>
        <mxCell id="U9Kk1MmL3YLU4MKY3mJT-6" value="&lt;div&gt;Genera comprobante&lt;/div&gt;" style="rounded=1;whiteSpace=wrap;html=1;" vertex="1" parent="1">
          <mxGeometry x="210" y="680" width="120" height="60" as="geometry" />
        </mxCell>
        <mxCell id="U9Kk1MmL3YLU4MKY3mJT-8" value="" style="shape=flexArrow;endArrow=classic;html=1;rounded=0;" edge="1" parent="1">
          <mxGeometry width="50" height="50" relative="1" as="geometry">
            <mxPoint x="269.5" y="460" as="sourcePoint" />
            <mxPoint x="270" y="490" as="targetPoint" />
            <Array as="points">
              <mxPoint x="269.5" y="490" />
            </Array>
          </mxGeometry>
        </mxCell>
        <mxCell id="U9Kk1MmL3YLU4MKY3mJT-9" value="" style="shape=flexArrow;endArrow=classic;html=1;rounded=0;" edge="1" parent="1" source="U9Kk1MmL3YLU4MKY3mJT-4">
          <mxGeometry width="50" height="50" relative="1" as="geometry">
            <mxPoint x="269.5" y="555" as="sourcePoint" />
            <mxPoint x="270" y="585" as="targetPoint" />
            <Array as="points">
              <mxPoint x="269.5" y="585" />
            </Array>
          </mxGeometry>
        </mxCell>
        <mxCell id="U9Kk1MmL3YLU4MKY3mJT-10" value="" style="shape=flexArrow;endArrow=classic;html=1;rounded=0;exitX=0.5;exitY=1;exitDx=0;exitDy=0;" edge="1" parent="1" source="U9Kk1MmL3YLU4MKY3mJT-5">
          <mxGeometry width="50" height="50" relative="1" as="geometry">
            <mxPoint x="269.5" y="650" as="sourcePoint" />
            <mxPoint x="270" y="680" as="targetPoint" />
            <Array as="points">
              <mxPoint x="269.5" y="680" />
            </Array>
          </mxGeometry>
        </mxCell>
        <mxCell id="U9Kk1MmL3YLU4MKY3mJT-11" value="" style="shape=flexArrow;endArrow=classic;html=1;rounded=0;entryX=1;entryY=0.5;entryDx=0;entryDy=0;" edge="1" parent="1" target="94wCXRL_7_7KG6kf2Dvk-2">
          <mxGeometry width="50" height="50" relative="1" as="geometry">
            <mxPoint x="780" y="270" as="sourcePoint" />
            <mxPoint x="510" y="320" as="targetPoint" />
            <Array as="points">
              <mxPoint x="500" y="270" />
            </Array>
          </mxGeometry>
        </mxCell>
        <mxCell id="U9Kk1MmL3YLU4MKY3mJT-14" value="" style="rounded=0;whiteSpace=wrap;html=1;rotation=90;" vertex="1" parent="1">
          <mxGeometry x="555" y="485" width="450" height="10" as="geometry" />
        </mxCell>
        <mxCell id="U9Kk1MmL3YLU4MKY3mJT-15" value="" style="rounded=0;whiteSpace=wrap;html=1;rotation=-180;" vertex="1" parent="1">
          <mxGeometry x="330" y="705" width="450" height="10" as="geometry" />
        </mxCell>
        <mxCell id="4qk6Uy8MiSrPVXI6ndzm-1" value="&lt;div&gt;&lt;font style=&quot;font-size: 25px;&quot;&gt;Cajero automÃ tico&lt;/font&gt;&lt;/div&gt;" style="text;html=1;align=center;verticalAlign=middle;resizable=0;points=[];autosize=1;strokeColor=none;fillColor=none;fontFamily=Times New Roman;" vertex="1" parent="1">
          <mxGeometry x="295" y="55" width="210" height="40" as="geometry" />
        </mxCell>
      </root>
    </mxGraphModel>
  </diagram>
  <diagram id="645303mw15pPkEWyrC_v" name="Mapa de NavegaciÃ²n_Carrito de Compras">
    <mxGraphModel dx="1428" dy="1902" grid="1" gridSize="10" guides="1" tooltips="1" connect="1" arrows="1" fold="1" page="1" pageScale="1" pageWidth="827" pageHeight="1169" math="0" shadow="0">
      <root>
        <mxCell id="0" />
        <mxCell id="1" parent="0" />
        <mxCell id="qGaaF14A4hMixoMHAeI_-1" value="Inicio de sesiÃ²n&lt;div&gt;&lt;br&gt;&lt;/div&gt;" style="rounded=1;whiteSpace=wrap;html=1;" vertex="1" parent="1">
          <mxGeometry x="340" y="55" width="120" height="60" as="geometry" />
        </mxCell>
        <mxCell id="qGaaF14A4hMixoMHAeI_-2" value="&lt;font style=&quot;font-size: 25px;&quot;&gt;E-Commerce, Mapa de NavegaciÃ²n&lt;/font&gt;&lt;div&gt;&lt;font style=&quot;font-size: 25px;&quot;&gt;&lt;br&gt;&lt;/font&gt;&lt;/div&gt;" style="text;html=1;align=center;verticalAlign=middle;resizable=0;points=[];autosize=1;strokeColor=none;fillColor=none;fontFamily=Times New Roman;" vertex="1" parent="1">
          <mxGeometry x="234" y="-20" width="380" height="70" as="geometry" />
        </mxCell>
        <mxCell id="qGaaF14A4hMixoMHAeI_-3" value="&lt;div&gt;MenÃ¹ de Opciones&lt;/div&gt;" style="rounded=1;whiteSpace=wrap;html=1;" vertex="1" parent="1">
          <mxGeometry x="340" y="195" width="120" height="60" as="geometry" />
        </mxCell>
        <mxCell id="qGaaF14A4hMixoMHAeI_-4" value="&lt;div&gt;Consulta de Saldo&lt;/div&gt;" style="rounded=1;whiteSpace=wrap;html=1;" vertex="1" parent="1">
          <mxGeometry x="50" y="355" width="120" height="60" as="geometry" />
        </mxCell>
        <mxCell id="qGaaF14A4hMixoMHAeI_-5" value="&lt;div&gt;Retiro sin tarjeta&lt;/div&gt;" style="rounded=1;whiteSpace=wrap;html=1;" vertex="1" parent="1">
          <mxGeometry x="220" y="355" width="120" height="60" as="geometry" />
        </mxCell>
        <mxCell id="qGaaF14A4hMixoMHAeI_-6" value="&lt;div&gt;Transferencia&lt;/div&gt;" style="rounded=1;whiteSpace=wrap;html=1;" vertex="1" parent="1">
          <mxGeometry x="460" y="355" width="120" height="60" as="geometry" />
        </mxCell>
        <mxCell id="qGaaF14A4hMixoMHAeI_-7" value="&lt;div&gt;Pago de Servicios&lt;/div&gt;" style="rounded=1;whiteSpace=wrap;html=1;" vertex="1" parent="1">
          <mxGeometry x="640" y="355" width="120" height="60" as="geometry" />
        </mxCell>
        <mxCell id="qGaaF14A4hMixoMHAeI_-8" value="" style="shape=flexArrow;endArrow=classic;html=1;rounded=0;" edge="1" parent="1">
          <mxGeometry width="50" height="50" relative="1" as="geometry">
            <mxPoint x="399.5" y="115" as="sourcePoint" />
            <mxPoint x="399.5" y="195" as="targetPoint" />
            <Array as="points">
              <mxPoint x="399.5" y="165" />
            </Array>
          </mxGeometry>
        </mxCell>
        <mxCell id="qGaaF14A4hMixoMHAeI_-9" value="" style="rounded=0;whiteSpace=wrap;html=1;" vertex="1" parent="1">
          <mxGeometry x="70" y="285" width="680" height="20" as="geometry" />
        </mxCell>
        <mxCell id="qGaaF14A4hMixoMHAeI_-10" value="" style="shape=flexArrow;endArrow=classic;html=1;rounded=0;" edge="1" parent="1">
          <mxGeometry width="50" height="50" relative="1" as="geometry">
            <mxPoint x="70" y="305" as="sourcePoint" />
            <mxPoint x="70" y="355" as="targetPoint" />
            <Array as="points">
              <mxPoint x="70" y="355" />
            </Array>
          </mxGeometry>
        </mxCell>
        <mxCell id="qGaaF14A4hMixoMHAeI_-11" value="" style="shape=flexArrow;endArrow=classic;html=1;rounded=0;" edge="1" parent="1">
          <mxGeometry width="50" height="50" relative="1" as="geometry">
            <mxPoint x="279.5" y="305" as="sourcePoint" />
            <mxPoint x="279.5" y="355" as="targetPoint" />
            <Array as="points">
              <mxPoint x="279.5" y="355" />
            </Array>
          </mxGeometry>
        </mxCell>
        <mxCell id="qGaaF14A4hMixoMHAeI_-12" value="" style="shape=flexArrow;endArrow=classic;html=1;rounded=0;" edge="1" parent="1">
          <mxGeometry width="50" height="50" relative="1" as="geometry">
            <mxPoint x="519.5" y="305" as="sourcePoint" />
            <mxPoint x="519.5" y="355" as="targetPoint" />
            <Array as="points">
              <mxPoint x="519.5" y="355" />
            </Array>
          </mxGeometry>
        </mxCell>
        <mxCell id="qGaaF14A4hMixoMHAeI_-13" value="" style="shape=flexArrow;endArrow=classic;html=1;rounded=0;" edge="1" parent="1">
          <mxGeometry width="50" height="50" relative="1" as="geometry">
            <mxPoint x="750" y="305" as="sourcePoint" />
            <mxPoint x="750" y="355" as="targetPoint" />
            <Array as="points">
              <mxPoint x="750" y="355" />
            </Array>
          </mxGeometry>
        </mxCell>
        <mxCell id="qGaaF14A4hMixoMHAeI_-14" value="" style="shape=flexArrow;endArrow=classic;html=1;rounded=0;" edge="1" parent="1">
          <mxGeometry width="50" height="50" relative="1" as="geometry">
            <mxPoint x="399.5" y="255" as="sourcePoint" />
            <mxPoint x="400" y="285" as="targetPoint" />
            <Array as="points">
              <mxPoint x="399.5" y="285" />
            </Array>
          </mxGeometry>
        </mxCell>
        <mxCell id="qGaaF14A4hMixoMHAeI_-15" value="&lt;div&gt;Elige el monto y concepto&lt;/div&gt;" style="rounded=1;whiteSpace=wrap;html=1;" vertex="1" parent="1">
          <mxGeometry x="220" y="445" width="120" height="60" as="geometry" />
        </mxCell>
        <mxCell id="qGaaF14A4hMixoMHAeI_-16" value="&lt;div&gt;Genera cÃ²digo&lt;/div&gt;" style="rounded=1;whiteSpace=wrap;html=1;" vertex="1" parent="1">
          <mxGeometry x="220" y="539.5" width="120" height="60" as="geometry" />
        </mxCell>
        <mxCell id="qGaaF14A4hMixoMHAeI_-17" value="&lt;div&gt;Genera comprobante&lt;/div&gt;" style="rounded=1;whiteSpace=wrap;html=1;" vertex="1" parent="1">
          <mxGeometry x="220" y="635" width="120" height="60" as="geometry" />
        </mxCell>
        <mxCell id="qGaaF14A4hMixoMHAeI_-18" value="" style="shape=flexArrow;endArrow=classic;html=1;rounded=0;" edge="1" parent="1">
          <mxGeometry width="50" height="50" relative="1" as="geometry">
            <mxPoint x="279.5" y="415" as="sourcePoint" />
            <mxPoint x="280" y="445" as="targetPoint" />
            <Array as="points">
              <mxPoint x="279.5" y="445" />
            </Array>
          </mxGeometry>
        </mxCell>
        <mxCell id="qGaaF14A4hMixoMHAeI_-19" value="" style="shape=flexArrow;endArrow=classic;html=1;rounded=0;" edge="1" parent="1" source="qGaaF14A4hMixoMHAeI_-15">
          <mxGeometry width="50" height="50" relative="1" as="geometry">
            <mxPoint x="279.5" y="510" as="sourcePoint" />
            <mxPoint x="280" y="540" as="targetPoint" />
            <Array as="points">
              <mxPoint x="279.5" y="540" />
            </Array>
          </mxGeometry>
        </mxCell>
        <mxCell id="qGaaF14A4hMixoMHAeI_-20" value="" style="shape=flexArrow;endArrow=classic;html=1;rounded=0;exitX=0.5;exitY=1;exitDx=0;exitDy=0;" edge="1" parent="1" source="qGaaF14A4hMixoMHAeI_-16">
          <mxGeometry width="50" height="50" relative="1" as="geometry">
            <mxPoint x="279.5" y="605" as="sourcePoint" />
            <mxPoint x="280" y="635" as="targetPoint" />
            <Array as="points">
              <mxPoint x="279.5" y="635" />
            </Array>
          </mxGeometry>
        </mxCell>
        <mxCell id="qGaaF14A4hMixoMHAeI_-21" value="" style="shape=flexArrow;endArrow=classic;html=1;rounded=0;entryX=1;entryY=0.5;entryDx=0;entryDy=0;" edge="1" parent="1" target="qGaaF14A4hMixoMHAeI_-3">
          <mxGeometry width="50" height="50" relative="1" as="geometry">
            <mxPoint x="790" y="225" as="sourcePoint" />
            <mxPoint x="520" y="275" as="targetPoint" />
            <Array as="points">
              <mxPoint x="510" y="225" />
            </Array>
          </mxGeometry>
        </mxCell>
        <mxCell id="qGaaF14A4hMixoMHAeI_-22" value="" style="rounded=0;whiteSpace=wrap;html=1;rotation=90;" vertex="1" parent="1">
          <mxGeometry x="565" y="440" width="450" height="10" as="geometry" />
        </mxCell>
        <mxCell id="qGaaF14A4hMixoMHAeI_-23" value="" style="rounded=0;whiteSpace=wrap;html=1;rotation=-180;" vertex="1" parent="1">
          <mxGeometry x="340" y="660" width="450" height="10" as="geometry" />
        </mxCell>
        <mxCell id="42UJIBBKNNDT9pw6bf22-1" value="&lt;div&gt;&lt;font style=&quot;font-size: 25px;&quot;&gt;Carrito de Compras&lt;/font&gt;&lt;/div&gt;" style="text;html=1;align=center;verticalAlign=middle;resizable=0;points=[];autosize=1;strokeColor=none;fillColor=none;fontFamily=Times New Roman;" vertex="1" parent="1">
          <mxGeometry x="290" y="15" width="220" height="40" as="geometry" />
        </mxCell>
      </root>
    </mxGraphModel>
  </diagram>
</mxfile>
